<?xml version="1.0" encoding="utf-8"?>
<!-- Generator: Adobe Illustrator 23.1.0, SVG Export Plug-In . SVG Version: 6.00 Build 0)  -->
<svg version="1.1"
	 id="svg17" sodipodi:docname="logo.svg" xmlns:inkscape="http://www.inkscape.org/namespaces/inkscape" xmlns:sodipodi="http://sodipodi.sourceforge.net/DTD/sodipodi-0.dtd" xmlns:svg="http://www.w3.org/2000/svg"
	 xmlns="http://www.w3.org/2000/svg" xmlns:xlink="http://www.w3.org/1999/xlink" x="0px" y="0px" viewBox="0 0 391 75.4"
	 style="enable-background:new 0 0 391 75.4;" xml:space="preserve">
<style type="text/css">
	.st0{font-family:'PoorRichard-Regular';}
	.st1{font-size:69.0602px;}
	.st2{letter-spacing:6.3;}
	.st3{fill:none;}
	.st4{fill:#09244B;}
</style>
<sodipodi:namedview  bordercolor="#000000" borderopacity="0.25" id="namedview19" inkscape:deskcolor="#d1d1d1" inkscape:pagecheckerboard="0" inkscape:pageopacity="0.0" inkscape:showpageshadow="2" pagecolor="#ffffff">
	</sodipodi:namedview>
<text transform="matrix(0.9469 0 0 1 124.9995 59.8028)" class="st0 st1 st2">CarsInfo</text>
<g id="页面-1">
	<g id="Transport" transform="translate(-240.000000, 0.000000)">
		<g id="car_2_line" transform="translate(240.000000, 0.000000)">
			<path id="MingCute" class="st3" d="M96.6-8.2v91h-91v-91H96.6z M53.3,80L53.3,80L53,80.1l-0.1,0l0,0l-0.1,0L52.6,80
				c0,0-0.1,0-0.1,0l0,0l-0.1,1.6l0,0.1l0,0l0.4,0.3l0.1,0l0,0l0,0l0.4-0.3l0-0.1l0,0l0-0.1L53.3,80C53.4,80,53.4,80,53.3,80
				L53.3,80z M54.3,79.5L54.3,79.5l-0.8,0.4l0,0l0,0l0,0l0.1,1.6l0,0l0,0l0,0l0.8,0.4c0,0,0.1,0,0.1,0l0-0.1L54.3,79.5
				C54.4,79.6,54.4,79.6,54.3,79.5L54.3,79.5z M51.6,79.6c0,0-0.1,0-0.1,0l0,0.1L51.4,82c0,0,0,0.1,0.1,0.1l0.1,0l0.8-0.4l0,0l0,0
				l0,0l0.1-1.6l0,0l0,0l0,0L51.6,79.6z"/>
			<path id="形状" class="st4" d="M67.8,7c2.5,0,4.8,1.2,6.3,3.3l0.3,0.5L88,34.5c0.5,1,0.9,2,1,3.1l0,0.7v17.1
				c0,0.9-0.2,1.9-0.5,2.7l-0.3,0.6L84,67.2c-1.2,2.4-3.5,4-6.2,4.2l-0.6,0H70c-4,0-7.3-3.1-7.6-7l0-0.6H39.7c0,4-3.1,7.3-7,7.6
				l-0.6,0H25c-2.7,0-5.1-1.4-6.5-3.7l-0.3-0.5L14,58.7c-0.4-0.8-0.7-1.8-0.8-2.7l0-0.7V38.3c0-1.1,0.2-2.2,0.7-3.2l0.3-0.6
				l13.6-23.8c1.2-2.2,3.5-3.6,6-3.8l0.6,0H67.8z M67.8,14.5H34.3L20.8,38.3v17.1l4.2,8.5h7.1v-3.4c0-2.1,1.6-3.9,3.7-4.1l0.5,0
				h29.6c2.1,0,3.9,1.6,4.1,3.7l0,0.5v3.4h7.1l4.2-8.5V38.3L67.8,14.5z M68.4,33.9c1.9-0.9,4.1-0.2,5.1,1.7c0.9,1.9,0.1,4.2-1.7,5.1
				c-6.2,3.1-13.8,4.2-20.6,4.2c-7,0-14.3-1.1-20.6-4.2c-1.8-0.9-2.6-3.3-1.7-5.1c0.9-1.8,2.9-2.5,4.7-1.9l1,0.4l0,0l0.9,0.4l0,0
				l0.8,0.3l0,0l1,0.3l0,0l1.1,0.3l0,0l1.3,0.3l0,0l1.4,0.3l0,0l1.6,0.3c2.4,0.4,5.3,0.8,8.5,0.8C56.8,37.3,63.1,36.4,68.4,33.9z"/>
		</g>
	</g>
</g>
</svg>
